<?xml version="1.0" encoding="UTF-8"?>
<svg version="1.1" xmlns="http://www.w3.org/2000/svg" width="2048" height="2048">
<path d="M0 0 C5.72783806 0.51255487 11.18926791 1.38196865 16.74414062 2.90405273 C17.46969493 3.09711848 18.19524923 3.29018423 18.94279003 3.48910046 C21.34898707 4.1310559 23.75256467 4.78230242 26.15625 5.43359375 C27.89265397 5.89887677 29.62921546 6.36357225 31.36592102 6.82772827 C36.08734524 8.09132032 40.80656428 9.36297631 45.52545547 10.63599014 C50.56603968 11.99420747 55.60868244 13.34473923 60.65112305 14.69604492 C69.15566491 16.97611229 77.65904599 19.26046137 86.16162109 21.54785156 C98.43511063 24.84951092 110.71126437 28.14117188 122.98828125 31.4296875 C126.9510984 32.49126282 130.91390493 33.55287776 134.87670898 34.61450195 C135.8583027 34.87745843 136.83989641 35.14041491 137.85123539 35.41133976 C144.8790816 37.29414117 151.90655164 39.1783422 158.93383789 41.06323242 C187.36072919 48.68780682 215.79237378 56.29447 244.22649765 63.89202499 C276.31349334 72.46562206 308.39702204 81.05186972 340.4736557 89.66415405 C369.83122789 97.5462534 399.19554225 105.40294512 428.5625 113.25 C462.87934469 122.41969902 497.19218436 131.60416874 531.50077057 140.80471802 C563.80886593 149.46869554 596.12165312 158.11498148 628.4375 166.75 C659.45186425 175.03725333 690.46258569 183.33782259 721.46696091 191.66236877 C751.13907613 199.62910259 780.81830488 207.56903681 810.5 215.5 C841.00428433 223.65075942 871.50558895 231.81237708 902 240 C932.18207358 248.10367977 962.37072336 256.18254779 992.5625 264.25 C1026.87934469 273.41969902 1061.19218436 282.60416874 1095.50077057 291.80471802 C1127.80886593 300.46869554 1160.12165312 309.11498148 1192.4375 317.75 C1223.45409572 326.03784959 1254.46701139 334.33915212 1285.4736557 342.66415405 C1316.97154162 351.12089783 1348.47748279 359.54732127 1379.98550415 367.96621704 C1403.26595468 374.18680019 1426.5454409 380.41091426 1449.8203125 386.65234375 C1450.8336478 386.92407347 1451.84698311 387.19580318 1452.89102554 387.47576714 C1461.98178467 389.91355389 1471.07243984 392.35172809 1480.16290283 394.7906189 C1502.77514136 400.85709513 1525.39130128 406.90842389 1548.015625 412.9296875 C1550.14517105 413.49661271 1552.27471312 414.06355288 1554.4042511 414.63050842 C1563.56244922 417.06850294 1572.7209123 419.50547584 1581.88080025 421.93711472 C1585.56768643 422.91627723 1589.25411748 423.89714476 1592.94043732 424.87843704 C1594.6508225 425.33330171 1596.36141605 425.78738366 1598.07222748 426.24064255 C1600.39885847 426.85711254 1602.72477655 427.47620289 1605.05053711 428.09594727 C1605.73276935 428.27598895 1606.41500158 428.45603064 1607.11790752 428.64152813 C1611.77194887 429.88597444 1611.77194887 429.88597444 1614 431 C1613.43691151 437.1080003 1612.45552438 442.78203756 1610.83642578 448.69042969 C1610.61568579 449.51693024 1610.39494579 450.34343079 1610.16751671 451.19497681 C1609.43299174 453.93898544 1608.68915313 456.68037833 1607.9453125 459.421875 C1607.41546804 461.39398674 1606.88622748 463.36626081 1606.35754395 465.33868408 C1605.2194783 469.57968719 1604.07732109 473.81955898 1602.9319458 478.05859375 C1601.09564743 484.85500017 1599.26856442 491.65386328 1597.44287109 498.453125 C1595.21484828 506.74842376 1592.98475251 515.04315944 1590.75181007 523.33713531 C1585.23498192 543.82918479 1579.75117175 564.33001956 1574.27310181 584.8324585 C1572.89232966 590.00006074 1571.51073988 595.16744397 1570.12889957 600.33476067 C1561.05470694 634.26817259 1552.02232556 668.21264761 1542.99793243 702.15933228 C1535.36355233 730.87693158 1527.71116013 759.58923353 1519.98129272 788.28128052 C1512.50880385 816.02517327 1505.13079374 843.79409557 1497.75 871.5625 C1488.36123074 906.88507636 1478.94091693 942.19880269 1469.45705032 977.4959631 C1468.37358153 981.52852406 1467.29024531 985.56112061 1466.20703125 989.59375 C1465.99547394 990.38131243 1465.78391663 991.16887486 1465.56594849 991.98030281 C1460.22781647 1011.85533037 1454.92479492 1031.73972115 1449.625 1051.625 C1449.4027412 1052.45891518 1449.18048241 1053.29283035 1448.95148849 1054.15201569 C1446.29990526 1064.10105432 1443.64934694 1074.05036561 1441 1084 C1435.66964687 1083.4222061 1430.68977646 1082.52216108 1425.49853516 1081.12426758 C1424.43329542 1080.83979326 1424.43329542 1080.83979326 1423.34653568 1080.54957199 C1420.99265764 1079.91960517 1418.64089604 1079.28208447 1416.2890625 1078.64453125 C1414.59963834 1078.19077049 1412.91008517 1077.73748985 1411.22041321 1077.28465271 C1406.64555845 1076.05719033 1402.07248233 1074.82321733 1397.49967575 1073.58815002 C1392.63830959 1072.27644773 1387.77525709 1070.97102777 1382.91235352 1069.66503906 C1374.85791767 1067.5011976 1366.80436433 1065.33410263 1358.75146484 1063.16455078 C1348.04045768 1060.27905793 1337.3274413 1057.40110538 1326.61328125 1054.52734375 C1325.80010185 1054.30922342 1324.98692245 1054.0911031 1324.14910126 1053.86637306 C1320.87259937 1052.98753135 1317.59608795 1052.1087252 1314.31954956 1051.23001957 C1308.51310591 1049.67280186 1302.70694186 1048.11454465 1296.90087891 1046.5559082 C1268.35552641 1038.89358261 1239.80230325 1031.26080017 1211.24821091 1023.63111877 C1181.82787941 1015.76990198 1152.41083109 1007.8966862 1123 1000 C1092.81792642 991.89632023 1062.62927664 983.81745221 1032.4375 975.75 C998.12065531 966.58030098 963.80781564 957.39583126 929.49922943 948.19528198 C897.19113407 939.53130446 864.87834688 930.88501852 832.5625 922.25 C801.54813575 913.96274667 770.53741431 905.66217741 739.53303909 897.33763123 C710.94120485 889.66094451 682.34291142 882.00860853 653.74188232 874.3662529 C621.68115404 865.7994093 589.62220034 857.22605502 557.57009888 848.62698364 C555.06523231 847.95499995 552.56033065 847.28314721 550.05541992 846.61132812 C546.12940107 845.55832478 542.20351154 844.50484037 538.2776947 843.45108414 C536.7721729 843.04706347 535.26660925 842.64319872 533.76100159 842.23949814 C525.03080747 839.89862505 516.30551897 837.54076233 507.5859375 835.16064453 C505.01454104 834.46022604 502.44307188 833.76007501 499.87158203 833.05999947 C497.42533368 832.39263779 494.98024329 831.72114703 492.53515625 831.04954529 C491.05213908 830.64553709 489.56906904 830.24172289 488.0859375 829.83813477 C487.4096933 829.65098215 486.7334491 829.46382954 486.03671265 829.27100563 C483.25354614 828.51763651 480.900241 828 478 828 C475.9339915 835.6827748 473.86801767 843.36555891 471.8024292 851.04844666 C471.54532921 852.00472112 471.28822922 852.96099558 471.02333832 853.94624805 C470.4837903 855.95308273 469.94424466 857.95991805 469.40470123 859.96675396 C467.71558231 866.24923411 466.02596947 872.5315812 464.33602715 878.81383991 C458.6499116 899.95251357 452.96983977 921.09272873 447.32392502 942.24217987 C445.81229976 947.9034335 444.29876221 953.56417632 442.78537941 959.22496033 C441.35568721 964.57397308 439.92958061 969.92392605 438.50600433 975.27456951 C437.62248583 978.59205065 436.73567243 981.90864449 435.84796906 985.22500801 C435.44068103 986.74938778 435.03478223 988.27413956 434.6304245 989.79929924 C434.07844865 991.88063751 433.52149757 993.96058509 432.96337891 996.0402832 C432.65461823 997.19873245 432.34585754 998.3571817 432.02774048 999.55073547 C430.86445811 1003.45490067 429.46786152 1007.20054108 428 1011 C416.74639763 1008.41450505 405.57149288 1005.62039603 394.42578125 1002.60546875 C392.84920299 1002.18121489 391.27255588 1001.75721683 389.69584656 1001.33345032 C386.32897339 1000.42805269 382.96253204 999.5210738 379.59643555 998.61279297 C374.18677622 997.15316647 368.77610677 995.69730983 363.36523438 994.2421875 C361.49233996 993.73849535 359.61944567 993.23480272 357.74655151 992.73110962 C356.80989529 992.47921497 355.87323906 992.22732033 354.90819931 991.96779251 C352.03192137 991.19414592 349.15573605 990.42015579 346.27957153 989.64608765 C327.97532288 984.72043627 309.66362162 979.82281003 291.35064697 974.92971802 C282.33896766 972.52184771 273.32762261 970.11272722 264.31640625 967.703125 C263.42494148 967.46474977 262.53347672 967.22637455 261.61499786 966.98077583 C242.05254268 961.74943396 222.49481912 956.50050361 202.9375 951.25 C172.44285463 943.06326043 141.94171983 934.9009892 111.4375 926.75 C77.8087115 917.76409925 44.18338418 908.76543097 10.5625 899.75 C-18.74889332 891.89021009 -48.06229201 884.03802207 -77.37965393 876.20052338 C-108.27936335 867.93979437 -139.17749968 859.67319413 -170.07299805 851.39672852 C-174.46318561 850.22069162 -178.85348949 849.04509047 -183.24389648 847.86987305 C-188.37806018 846.49554544 -193.51198802 845.1203404 -198.64573097 843.74444199 C-200.5422716 843.23630491 -202.4388959 842.72848001 -204.33560753 842.2209816 C-206.93059092 841.52658744 -209.52526996 840.83106748 -212.11987305 840.13525391 C-212.88121552 839.93180611 -213.64255798 839.72835831 -214.42697144 839.51874542 C-217.31272959 838.743817 -220.1645123 837.94516257 -223 837 C-221.32241215 827.82937632 -218.92124117 818.88229243 -216.50390625 809.88671875 C-216.04311332 808.16271116 -215.58260087 806.43862858 -215.12234497 804.71447754 C-213.86943046 800.02407171 -212.61266617 795.33470505 -211.35525131 790.645504 C-210.00967061 785.62472 -208.66774074 780.60296036 -207.32543945 775.58129883 C-205.04658537 767.05761599 -202.76567448 758.53448593 -200.48339844 750.01171875 C-197.10198284 737.38391727 -193.72609556 724.75464218 -190.3515625 712.125 C-189.24474121 707.98282051 -188.13788334 703.8406508 -187.03100586 699.69848633 C-186.75632319 698.67056127 -186.48164053 697.6426362 -186.19863415 696.5835619 C-183.08557052 684.93425993 -179.9705675 673.28547665 -176.85546875 661.63671875 C-172.31570275 644.66034427 -167.77651193 627.68381623 -163.23828125 610.70703125 C-162.96019308 609.66674963 -162.68210491 608.62646801 -162.39558983 607.5546627 C-160.99187555 602.30358534 -159.58817424 597.05250451 -158.18447876 591.80142212 C-155.65437242 582.33657585 -153.12415094 572.87176036 -150.59393883 563.40694237 C-149.18762123 558.14629616 -147.78131099 552.88564798 -146.375 547.625 C-145.81250004 545.52083332 -145.25000004 543.41666666 -144.6875 541.3125 C-144.4090625 540.2709375 -144.130625 539.229375 -143.84375 538.15625 C-143 535 -142.15625 531.84375 -141.3125 528.6875 C-140.89484186 527.12514917 -140.89484186 527.12514917 -140.46874619 525.53123569 C-139.90625892 523.42711671 -139.34377164 521.32299772 -138.78128433 519.21887875 C-137.37483923 513.95773267 -135.96839454 508.69658648 -134.56195068 503.43544006 C-132.03303086 493.9754 -129.50410823 484.51536069 -126.97517014 475.05532551 C-125.57198639 469.80641547 -124.16880506 464.55750478 -122.765625 459.30859375 C-122.48767342 458.26885344 -122.20972183 457.22911312 -121.92334747 456.15786552 C-117.93937548 441.25490427 -113.95554141 426.35190615 -109.9717865 411.44888687 C-98.91662376 370.09217423 -87.86034461 328.73576115 -76.79940796 287.38059235 C-67.65056268 253.17438175 -58.50512049 218.96726201 -49.36108398 184.75976562 C-49.0804671 183.7099885 -48.79985022 182.66021137 -48.51072979 181.57862282 C-46.80152582 175.18455125 -46.80152582 175.18455125 -45.09232903 168.79047775 C-40.93566416 153.24046907 -36.7784731 137.69060113 -32.62093735 122.14082527 C-30.80939094 115.36532414 -28.99792235 108.58980221 -27.18645287 101.81428051 C-25.75755644 96.4697438 -24.32861117 91.12522016 -22.89953613 85.7807312 C-15.25470249 57.19025775 -7.62185218 28.59660879 0 0 Z " fill="#009FFF" transform="translate(434,0)"/>
<path d="M0 0 C9.78983585 1.76983598 19.334043 4.39337751 28.9375 6.9609375 C30.82595128 7.46349333 32.71446706 7.96580683 34.6030426 8.46789551 C39.67850994 9.81818942 44.75288402 11.17254879 49.82701492 12.52785492 C54.09822534 13.66821165 58.37004634 14.8062724 62.64183521 15.94445992 C90.0898481 23.25872695 117.52202255 30.63032701 144.9387207 38.06103516 C172.60944396 45.56047665 200.30187917 52.9774321 228 60.375 C230.17641274 60.95630603 232.35282469 61.53761503 234.52923584 62.118927 C235.60540916 62.40636622 236.68158249 62.69380545 237.79036713 62.98995495 C243.18967858 64.43208013 248.588983 65.87423164 253.98828125 67.31640625 C255.58263126 67.74224345 255.58263126 67.74224345 257.20919037 68.17668343 C278.53922374 73.87399011 299.86448557 79.58898609 321.1875 85.3125 C322.86108391 85.76169867 324.5346679 86.21089707 326.20825195 86.66009521 C332.84314325 88.44097959 339.47798969 90.222031 346.11276245 92.00335693 C357.88344927 95.1635853 369.65449312 98.3224809 381.42578125 101.48046875 C382.69707005 101.82152995 382.69707005 101.82152995 383.99404144 102.16948128 C388.27993786 103.31929469 392.56584011 104.46908637 396.85174561 105.61886597 C404.56518851 107.68815703 412.27859443 109.757586 419.99199677 111.82702827 C421.70342723 112.2861909 423.4148581 112.74535202 425.12628937 113.20451164 C436.91098325 116.36622909 448.69558984 119.52827175 460.48013687 122.6905365 C468.00757037 124.71043547 475.53502772 126.73024555 483.0625 128.75 C483.89528473 128.97345093 484.72806946 129.19690186 485.58609009 129.42712402 C514.88941648 137.28963913 544.19444705 145.14578834 573.5 153 C603.64681434 161.079679 633.79298377 169.16175086 663.9375 177.25 C664.77249401 177.47404007 665.60748802 177.69808014 666.46778488 177.9289093 C679.80673574 181.5079373 693.14559963 185.08728935 706.48445129 188.66668701 C716.4827746 191.34967163 726.48111401 194.03259619 736.47950459 196.71533012 C740.68979027 197.84502075 744.9000667 198.9747458 749.11032104 200.10455322 C768.41554382 205.28500156 787.72165486 210.46211378 807.02945518 215.63294792 C815.31820625 217.85280621 823.60684467 220.07308508 831.89547348 222.29339981 C833.95888394 222.84611937 836.02230196 223.39881068 838.08572769 223.95147324 C860.53716743 229.9648252 882.98602853 235.98728568 905.421875 242.05859375 C906.30083939 242.29641068 907.17980377 242.5342276 908.08540344 242.7792511 C916.3550957 245.01691106 924.62431164 247.25630709 932.89197922 249.50143719 C935.8245893 250.29754436 938.75752678 251.09244054 941.69052887 251.88710213 C943.66973212 252.42387469 945.64843958 252.96244696 947.62713623 253.50108337 C948.79915588 253.81856033 949.97117554 254.13603729 951.17871094 254.46313477 C952.18963806 254.73779068 953.20056519 255.01244659 954.24212646 255.29542542 C956.8170733 255.95326635 959.38914295 256.50629147 962 257 C962.08185547 255.99864014 962.16371094 254.99728027 962.24804688 253.96557617 C963.12711421 247.01447826 965.19444817 240.29645994 967.03125 233.55078125 C967.45541698 231.97702783 967.8790887 230.40314085 968.30230713 228.82913208 C969.45450796 224.54926436 970.61326641 220.27119789 971.77342224 215.99348068 C972.99442286 211.48814175 974.21046594 206.9814655 975.42675781 202.47485352 C975.93071107 200.60776904 976.43467852 198.7406884 976.93865967 196.87361145 C977.19224998 195.9341398 977.4458403 194.99466816 977.70711517 194.02672768 C978.49305204 191.11630533 979.27981543 188.20610737 980.06671143 185.29594421 C983.76823364 171.60081188 987.43332902 157.89623421 991.08172607 144.18686104 C992.79672567 137.74566862 994.51619847 131.30566868 996.23561096 124.86565304 C997.6337395 119.62750408 999.02900502 114.38862426 1000.41821289 109.14810181 C1001.7292039 104.20317394 1003.047697 99.26030776 1004.3719101 94.31890488 C1004.86030995 92.49083747 1005.34586909 90.66200856 1005.82846832 88.83240128 C1006.48732443 86.33601615 1007.1559443 83.84245375 1007.82714844 81.34936523 C1008.0192112 80.61198781 1008.21127396 79.87461039 1008.4091568 79.11488819 C1008.87857696 77.39217503 1009.43117704 75.69249413 1010 74 C1013.36259467 72.31870267 1016.83083978 74.09423605 1020.30834961 75.04760742 C1021.17497978 75.27913513 1022.04160995 75.51066284 1022.93450165 75.74920654 C1025.84230886 76.52787217 1028.74725937 77.31671057 1031.65234375 78.10546875 C1033.70662035 78.65764756 1035.7610725 79.20917365 1037.81568909 79.76008606 C1042.21760261 80.9418134 1046.61828756 82.12797669 1051.01806641 83.31762695 C1057.98413525 85.20113856 1064.95276652 87.07503689 1071.921875 88.94726562 C1080.13655608 91.15471422 1088.35067547 93.36422661 1096.56398201 95.57678413 C1108.6544347 98.83359514 1120.74811985 102.07788138 1132.84765625 105.30078125 C1133.59434381 105.49967579 1134.34103138 105.69857033 1135.11034584 105.90349197 C1138.78787855 106.88290049 1142.46554101 107.86182063 1146.14328003 108.8404541 C1153.61960579 110.83000515 1161.09496448 112.82318528 1168.5703125 114.81640625 C1169.33284521 115.01970928 1170.09537792 115.22301231 1170.88101768 115.43247604 C1184.33646919 119.02013957 1197.78961845 122.61638876 1211.2421875 126.21484375 C1213.29438262 126.76376892 1215.34657785 127.31269368 1217.39877319 127.86161804 C1220.53579253 128.70072481 1223.67281064 129.53983618 1226.8098278 130.37895107 C1228.93286182 130.94683685 1231.05589662 131.51471969 1233.17893219 132.08259964 C1235.30687906 132.65179362 1237.43482401 133.22099475 1239.56276703 133.79020309 C1276.08465253 143.55925583 1312.6171906 153.28786436 1349.15407562 163.00065231 C1377.87344136 170.63544996 1406.58748168 178.28836791 1435.28128052 186.01870728 C1460.64897504 192.85119531 1486.03762105 199.60434388 1511.42764282 206.35333252 C1583.35815297 225.47377511 1583.35815297 225.47377511 1615.95455933 234.19274902 C1619.49762923 235.14031114 1623.04119759 236.08597256 1626.5852356 237.02990723 C1630.67787852 238.12003244 1634.76948797 239.21395007 1638.86029816 240.31093216 C1640.33482683 240.70566791 1641.80971343 241.09906962 1643.28499603 241.49097824 C1650.31772613 243.36008851 1657.24666634 245.261712 1664 248 C1654.86745858 282.94813213 1645.58491374 317.85545398 1636.25 352.75 C1635.9630917 353.82248867 1635.6761834 354.89497734 1635.3805809 355.99996567 C1632.71106351 365.97840795 1630.04088018 375.95667197 1627.37007141 385.93476868 C1623.31180679 401.0964387 1619.25619383 416.25881519 1615.203125 431.421875 C1614.92608482 432.45831398 1614.64904465 433.49475296 1614.36360931 434.56259918 C1612.96750202 439.78565859 1611.57144674 445.00873191 1610.17541504 450.23181152 C1607.64874144 459.68494707 1605.12160368 469.13795853 1602.59450531 478.59098053 C1601.18798494 483.85231538 1599.78149394 489.11365808 1598.375 494.375 C1597.81250014 496.4791667 1597.25000014 498.58333337 1596.6875 500.6875 C1596.4090625 501.7290625 1596.130625 502.770625 1595.84375 503.84375 C1568 608 1540.15625 712.15625 1512.3125 816.3125 C1512.03405998 817.35407194 1511.75561996 818.39564388 1511.46874237 819.46877861 C1510.90626785 821.57284992 1510.34379328 823.67692122 1509.78131866 825.78099251 C1508.37467846 831.042868 1506.96803907 836.30474371 1505.56140137 841.56661987 C1503.03481173 851.01795 1500.50821652 860.46927864 1497.98159027 869.92059898 C1496.58147276 875.1580024 1495.1813601 880.39540711 1493.78125 885.6328125 C1493.50378433 886.67073063 1493.22631866 887.70864876 1492.94044495 888.77801895 C1489.79218448 900.55477378 1486.64403164 912.33155737 1483.49609375 924.10839844 C1483.20520685 925.19664193 1482.91431995 926.28488543 1482.6146183 927.406106 C1481.14690086 932.89702975 1479.67920013 938.38795797 1478.21151733 943.87889099 C1475.34804168 954.59167286 1472.48422694 965.30436389 1469.61962891 976.0168457 C1468.51984334 980.12971646 1467.42007485 984.24259178 1466.3203125 988.35546875 C1465.91873869 989.85723002 1465.91873869 989.85723002 1465.50905228 991.38932991 C1462.18064938 1003.8369641 1458.85564341 1016.28549767 1455.53509521 1028.73522949 C1453.94612215 1034.69266055 1452.35579386 1040.64972951 1450.76504135 1046.60668564 C1449.52553317 1051.24879459 1448.28785743 1055.8913867 1447.05163383 1060.53437138 C1446.30941117 1063.32023044 1445.56542337 1066.10561565 1444.82089615 1068.8908596 C1444.31945461 1070.76891139 1443.82020119 1072.64754698 1443.3210144 1074.52619934 C1443.02671539 1075.62574448 1442.73241638 1076.72528961 1442.42919922 1077.8581543 C1442.1753244 1078.81038376 1441.92144958 1079.76261322 1441.65988159 1080.74369812 C1441 1083 1441 1083 1440 1085 C1427.81658165 1082.21520992 1415.73710331 1079.12717397 1403.671875 1075.87109375 C1401.80041978 1075.36820912 1399.92889671 1074.86557697 1398.05731201 1074.36317444 C1394.05270276 1073.28769764 1390.0485209 1072.21064952 1386.04467773 1071.13232422 C1379.61449872 1069.40060324 1373.18332711 1067.67258952 1366.75195312 1065.9453125 C1364.52978499 1065.34848085 1362.30761702 1064.75164857 1360.08544922 1064.15481567 C1358.97429749 1063.85638889 1357.86314575 1063.55796211 1356.71832275 1063.2504921 C1353.30449746 1062.3334971 1349.89076377 1061.41616176 1346.47705078 1060.49874878 C1324.91298429 1054.70413899 1303.34161411 1048.93698712 1281.7689209 1043.17459106 C1271.22068011 1040.35697706 1260.67277809 1037.53809555 1250.125 1034.71875 C1249.08058495 1034.43958803 1248.03616989 1034.16042606 1246.9601059 1033.87280464 C1222.46872416 1027.32608708 1197.98230367 1020.7608866 1173.49619675 1014.19447327 C1141.18910749 1005.53078311 1108.87733615 996.88474844 1076.5625 988.25 C1045.54813575 979.96274667 1014.53741431 971.66217741 983.53303909 963.33763123 C953.86092387 955.37089741 924.18169512 947.43096319 894.5 939.5 C863.99571567 931.34924058 833.49441105 923.18762292 803 915 C772.81792642 906.89632023 742.62927664 898.81745221 712.4375 890.75 C678.12065531 881.58030098 643.80781564 872.39583126 609.49922943 863.19528198 C577.19113407 854.53130446 544.87834688 845.88501852 512.5625 837.25 C481.54590428 828.96215041 450.53298861 820.66084788 419.5263443 812.33584595 C390.16877211 804.4537466 360.80445775 796.59705488 331.4375 788.75 C297.12065531 779.58030098 262.80781564 770.39583126 228.49922943 761.19528198 C196.19113407 752.53130446 163.87834688 743.88501852 131.5625 735.25 C101.3707232 727.18254775 71.18210249 719.1035724 41 711 C11.36357127 703.04299184 -18.2786742 695.10791306 -47.92416 687.18471527 C-52.23529228 686.03244937 -56.54637133 684.87998436 -60.85744953 683.72751617 C-79.84435424 678.65185797 -98.83155866 673.5773418 -117.82133484 668.51243591 C-123.76023615 666.92836639 -129.69877051 665.34292357 -135.63718128 663.75701618 C-140.2673215 662.52061867 -144.89795515 661.28609291 -149.52898979 660.05305004 C-152.31624371 659.31045885 -155.10302392 658.566103 -157.8896637 657.82121086 C-159.7682114 657.31964138 -161.64734184 656.82025606 -163.52648926 656.32093811 C-165.17566345 655.87952736 -165.17566345 655.87952736 -166.8581543 655.42919922 C-167.81038376 655.1753244 -168.76261322 654.92144958 -169.74369812 654.65988159 C-172 654 -172 654 -174 653 C-170.97531553 639.7115714 -167.55595981 626.54459603 -164.0390625 613.37890625 C-163.45515671 611.18591951 -162.87145217 608.99287917 -162.28793335 606.79978943 C-160.7276059 600.9381501 -159.16413903 595.07735254 -157.59997559 589.21673584 C-156.28476973 584.28730739 -154.97145116 579.35737689 -153.65810013 574.42745399 C-145.37384864 543.33225852 -137.0547347 512.24649697 -128.70172119 481.16970825 C-120.58217307 450.9603514 -112.53522987 420.73188247 -104.5 390.5 C-95.82171793 357.84868724 -87.1193513 325.20423038 -78.34881592 292.57757568 C-70.3294686 262.74392219 -62.37579004 232.89304503 -54.44013977 203.03702545 C-36.44052908 135.31828499 -18.28413802 67.64244741 0 0 Z " fill="#009FFF" transform="translate(175,962)"/>
</svg>
